<?xml version="1.0" encoding="UTF-8" standalone="no"?>
<!-- Created with Inkscape (http://www.inkscape.org/) -->

<svg
   width="163.87996mm"
   height="131.21698mm"
   viewBox="0 0 163.87996 131.21698"
   version="1.1"
   id="svg5"
   xml:space="preserve"
   inkscape:export-filename="donut-img.svg"
   inkscape:export-xdpi="96"
   inkscape:export-ydpi="96"
   xmlns:inkscape="http://www.inkscape.org/namespaces/inkscape"
   xmlns:sodipodi="http://sodipodi.sourceforge.net/DTD/sodipodi-0.dtd"
   xmlns="http://www.w3.org/2000/svg"
   xmlns:svg="http://www.w3.org/2000/svg"><sodipodi:namedview
     id="namedview7"
     pagecolor="#ffffff"
     bordercolor="#000000"
     borderopacity="0.25"
     inkscape:showpageshadow="2"
     inkscape:pageopacity="0.0"
     inkscape:pagecheckerboard="0"
     inkscape:deskcolor="#d1d1d1"
     inkscape:document-units="mm"
     showgrid="false" /><defs
     id="defs2" /><g
     inkscape:label="Calque 1"
     inkscape:groupmode="layer"
     id="layer1"
     transform="translate(-24.841849,-66.261793)"><path
       style="fill:#000000;stroke-width:0.733055"
       d="m 40.811366,195.33977 c -2.298269,-2.0535 -2.404334,-2.3906 -2.652483,-8.43015 l -0.258497,-6.2911 h 68.615954 68.61593 v 5.16778 c 0,5.58258 -1.11146,8.6483 -3.82422,10.54841 -1.44949,1.01526 -8.75275,1.14407 -64.86804,1.14407 H 43.205363 Z m -3.766729,-25.90036 c -0.239963,-1.31033 -3.254931,-21.48184 -6.699912,-44.82557 -6.798419,-46.067115 -6.775373,-45.661215 -2.771267,-48.810855 2.599683,-2.04491 7.429792,-1.97659 10.19526,0.14421 1.16312,0.89198 6.047521,5.09789 10.854227,9.34645 17.125876,15.137335 21.881357,19.142735 22.478353,18.933055 0.332768,-0.11692 6.746315,-7.799655 14.252335,-17.072815 16.607627,-20.51756 16.985617,-20.89209 21.086377,-20.89209 1.71824,0 3.84944,0.50806 4.73598,1.12903 0.88656,0.62096 7.91213,9.19772 15.61242,19.05946 7.70029,9.86172 14.22312,17.927475 14.49517,17.923895 0.45107,-0.006 5.98168,-4.545115 11.4905,-9.430715 1.20953,-1.07272 7.02726,-6.11614 12.92829,-11.20765 10.74056,-9.26711 13.41883,-10.80965 16.92725,-9.7492 2.42094,0.73173 5.56101,3.91181 6.04592,6.12301 0.2308,1.05208 -0.4247,7.68568 -1.45656,14.74136 -1.03185,7.055645 -3.84426,26.518275 -6.24982,43.250275 -2.40558,16.73201 -4.54429,31.16404 -4.75276,32.07121 l -0.379,1.64937 H 106.65916 37.480949 Z M 161.54954,153.31218 c 0.95151,-4.2043 7.05798,-48.37004 6.73274,-48.69526 -0.20225,-0.20225 -6.41353,4.8572 -13.80254,11.24353 -7.38902,6.38633 -13.9761,12.03457 -14.63796,12.55164 -1.06012,0.82822 -3.01436,-1.39707 -16.41603,-18.69291 -8.36692,-10.798175 -15.60094,-20.057115 -16.0756,-20.575385 -0.68229,-0.74504 -4.36686,3.36739 -17.597634,19.641175 l -16.73464,20.58351 -1.906085,-1.73628 c -9.950903,-9.06451 -26.463448,-23.13269 -26.463448,-22.5461 0,0.77643 6.262174,43.38104 6.980693,47.49303 l 0.416301,2.38242 h 54.565473 54.56549 z"
       id="path179" /></g></svg>
